<?xml version="1.0" standalone="no"?>
<!DOCTYPE svg PUBLIC "-//W3C//DTD SVG 1.1//EN" "http://www.w3.org/Graphics/SVG/1.1/DTD/svg11.dtd" >
<svg xmlns="http://www.w3.org/2000/svg">
<metadata>Generated by IcoMoon</metadata>
<defs>
<font id="app-icons" horiz-adv-x="1024">
<font-face units-per-em="1024" ascent="960" descent="-64" />
<missing-glyph horiz-adv-x="1024" />
<glyph unicode="&#x20;" horiz-adv-x="512" d="" />
<glyph unicode="&#xe900;" glyph-name="close" d="M79.346 960l-79.346-79.346 432.664-432.654-432.664-432.664 79.346-79.336 432.654 432.654 432.664-432.654 79.336 79.336-432.654 432.664 432.654 432.654-79.336 79.346-432.664-432.664-432.654 432.664z" />
<glyph unicode="&#xe901;" glyph-name="list" d="M0 901.486v-175.543h175.543v175.543zM318.464 901.486v-175.543h705.536v175.543zM0 521.143v-175.543h175.543v175.543zM321.302 521.143v-175.543h702.698v175.543zM0 170.057v-175.543h175.543v175.543zM321.302 170.057v-175.543h702.698v175.543z" />
<glyph unicode="&#xe902;" glyph-name="user-outline" d="M511.992 959.988c-282.54 0-511.992-229.452-511.992-511.992 0-269.96 209.625-490.868 474.749-510.058 12.356-0.894 24.677-1.926 37.259-1.926 0.976 0 1.915 0.143 2.889 0.148 1.145-0.008 2.26-0.148 3.407-0.148 117.341 0 225.072 40.998 309.698 109.479-0.006 0.099 0.006 0.197 0 0.296 119.143 93.785 195.998 238.998 195.998 402.198 0 282.54-229.452 511.992-511.992 511.992zM511.992 922.062c262.045 0 474.066-212.022 474.066-474.066 0-143.381-63.729-271.549-164.144-358.441-22.61 110.662-103.896 199.836-210.144 233.404 70.89 36.291 119.628 109.942 119.628 194.887 0 120.717-98.246 219.034-218.958 219.034s-218.958-98.318-218.958-219.034c0-86.894 51.044-161.91 124.593-197.257-105.85-36.176-185.929-127.725-205.332-240.292-106.657 86.891-174.813 219.231-174.813 367.697 0 262.045 212.022 474.066 474.066 474.066zM512.437 698.956c100.218 0 181.033-80.891 181.033-181.108 0-98.033-77.489-176.948-174.665-180.369-0.175 0-0.344 0-0.519 0-2.85 0-5.613-0.294-8.445-0.37-98.981 1.419-178.442 81.41-178.442 180.737 0 100.218 80.815 181.108 181.033 181.108zM522.214 299.412c135.644-1.946 248.544-103.506 265.997-236.294-1.848-1.328-3.539-2.846-5.407-4.148-3.611-2.583-7.356-4.935-11.037-7.407-73.871-48.469-162.036-76.924-256.96-77.481-9.928 0.077-19.838 0.458-29.703 1.185-1.184 0.087-2.373 0.126-3.556 0.222-84.16 6.868-165.309 37.125-233.256 87.258 17.013 131.006 126.997 231.538 260.069 236.366 1.368-0.025 2.7-0.222 4.074-0.222 3.298 0 6.514 0.373 9.778 0.519z" />
<glyph unicode="&#xe903;" glyph-name="bell" d="M934.757 120.282h-16.832c-50.659 60.039-81.597 138.158-82.043 223.491v178.7c-3.055 143.225-102.77 262.324-236.378 294.859l-2.121 0.436c8.901 13.678 14.216 30.403 14.272 48.364v0.015c-3.184 52.49-46.531 93.853-99.539 93.853s-96.355-41.363-99.525-93.574l-0.014-0.279c0.057-17.977 5.371-34.701 14.485-48.729l-0.213 0.349c-135.731-32.97-235.445-152.069-238.495-294.961l-0.006-0.334v-178.653c-0.377-85.399-31.27-163.511-82.327-224.064l0.431 0.525h-16.635c-0.613 0.047-1.328 0.074-2.049 0.074-15.738 0-28.496-12.758-28.496-28.496s12.758-28.496 28.496-28.496c0.721 0 1.436 0.027 2.144 0.079l-0.094-0.006h260.451c18.187-73.669 83.701-127.435 161.772-127.435s143.585 53.766 161.533 126.29l0.239 1.143h260.844c0.252-0.008 0.549-0.012 0.847-0.012 15.873 0 28.791 12.651 29.223 28.419l0.001 0.040c-0.18 15.737-12.978 28.424-28.74 28.424-0.433 0-0.864-0.010-1.293-0.029l0.061 0.002zM512.091 903.356c0.283 0.008 0.617 0.012 0.951 0.012 20.835 0 37.798-16.577 38.42-37.26l0.001-0.057c0-21.745-17.628-39.373-39.373-39.373s-39.373 17.628-39.373 39.373v0c0.624 20.741 17.587 37.317 38.422 37.317 0.334 0 0.668-0.004 1-0.013l-0.049 0.001zM512.091-7.138c-0.445-0.007-0.97-0.011-1.496-0.011-45.521 0-84.228 29.18-98.435 69.855l-0.222 0.731h200.358c-14.429-41.407-53.136-70.587-98.657-70.587-0.543 0-1.086 0.004-1.627 0.012l0.082-0.001zM180.278 120.282c42.627 62.779 68.15 140.177 68.409 223.521v178.67c7.861 139.49 122.893 249.629 263.649 249.629s255.789-110.138 263.618-248.935l0.031-0.693v-178.653c0.171-83.39 25.633-160.799 69.119-225.006l-0.905 1.418z" />
<glyph unicode="&#xe904;" glyph-name="caret-down" d="M0 772.827h1024l-479.086-649.655z" />
<glyph unicode="&#xe905;" glyph-name="caret-up" d="M0 123.173h1024l-479.086 649.655z" />
<glyph unicode="&#xe906;" glyph-name="check" d="M875.831 846.19l-501.129-501.129-226.532 226.554-148.169-148.158 334.202-334.202 1.058 1.058 40.502-40.502 648.237 648.237z" />
<glyph unicode="&#xe907;" glyph-name="chevron-left" d="M317.66 567.036l484.75-484.75c33.465-33.465 33.465-87.722 0-121.188v0 0c-33.465-33.465-87.722-33.465-121.188 0v0l-484.75 484.75 121.188 121.188zM196.491 450.151l484.75 484.75c33.465 33.465 87.722 33.465 121.188 0v0 0c33.465-33.465 33.465-87.722 0-121.188v0l-484.75-484.75-121.188 121.188z" />
<glyph unicode="&#xe908;" glyph-name="chevron-right" d="M706.34 567.036l-484.75-484.75c-33.465-33.465-33.465-87.722 0-121.188v0 0c33.465-33.465 87.722-33.465 121.188 0v0l484.75 484.75-121.188 121.188zM827.509 450.151l-484.75 484.75c-33.465 33.465-87.722 33.465-121.188 0v0 0c-33.465-33.465-33.465-87.722 0-121.188v0l484.75-484.75 121.188 121.188z" />
<glyph unicode="&#xe909;" glyph-name="ellipsis" d="M1024 448c0-74.413-60.324-134.737-134.737-134.737s-134.737 60.324-134.737 134.737c0 74.413 60.324 134.737 134.737 134.737s134.737-60.324 134.737-134.737zM646.737 448c0-74.413-60.324-134.737-134.737-134.737s-134.737 60.324-134.737 134.737c0 74.413 60.324 134.737 134.737 134.737s134.737-60.324 134.737-134.737zM269.474 448c0-74.413-60.324-134.737-134.737-134.737s-134.737 60.324-134.737 134.737c0 74.413 60.324 134.737 134.737 134.737s134.737-60.324 134.737-134.737z" />
<glyph unicode="&#xe90a;" glyph-name="exit" d="M403.342 243.769l80.213-80.213 284.444 284.444-284.444 284.444-80.213-80.213 146.584-147.342h-549.926v-113.778h549.926zM910.222 960h-796.444c-62.838 0-113.778-50.94-113.778-113.778v0-227.556h113.778v227.556h796.444v-796.444h-796.444v227.556h-113.778v-227.556c0-62.838 50.94-113.778 113.778-113.778h796.444c62.762 0.188 113.59 51.016 113.778 113.76v796.462c-0.188 62.762-51.016 113.59-113.76 113.778h-0.018z" />
<glyph unicode="&#xe90b;" glyph-name="phone" d="M426.685 362.662c-23.564 0.025-42.657 19.133-42.657 42.701v0 469.321c0.025 47.108 38.207 85.29 85.312 85.315h426.666c47.108-0.025 85.29-38.207 85.315-85.312v-298.692c-0.025-47.108-38.207-85.29-85.312-85.315h-284.459l-159.26-119.468c-7.041-5.334-15.946-8.546-25.603-8.549h-0.001zM640.017 405.32v-298.646c-0.025-23.549-19.108-42.632-42.655-42.657h-426.886c-23.549 0.025-42.632 19.108-42.657 42.655v597.296c0 0.052 0 0.114 0 0.176 0 23.568 19.093 42.676 42.655 42.701h127.799v127.797h-127.797c-70.519-0.15-127.647-57.277-127.797-127.782v-683.063c0.15-70.519 57.277-127.647 127.782-127.797h426.677c70.519 0.15 127.647 57.277 127.797 127.782v341.539z" />
<glyph unicode="&#xe90c;" glyph-name="plus-circle" d="M511.999-63.996c-0.408-0.001-0.89-0.002-1.373-0.002-140.95 0-268.509 57.334-360.629 149.951l-0.023 0.023c-92.641 92.154-149.974 219.725-149.974 360.687 0 0.47 0.001 0.94 0.002 1.41v-0.072c-0.001 0.421-0.002 0.918-0.002 1.415 0 140.929 57.317 268.471 149.91 360.588l0.022 0.021c92.141 92.64 219.701 149.974 360.652 149.974 0.498 0 0.995-0.001 1.492-0.002h-0.076c0.423 0.001 0.922 0.002 1.423 0.002 140.94 0 268.494-57.316 360.624-149.911l0.021-0.021c92.615-92.137 149.932-219.68 149.932-360.609 0-0.513-0.001-1.025-0.002-1.538v0.080c0.001-0.41 0.002-0.895 0.002-1.38 0-140.961-57.333-268.531-149.952-360.665l-0.022-0.022c-92.144-92.615-219.692-149.932-360.627-149.932-0.491 0-0.982 0.001-1.473 0.002h0.076zM234.668 490.668c-23.564 0-42.667-19.103-42.667-42.667v0c0-23.564 19.103-42.667 42.667-42.667v0h234.666v-234.666c0-23.564 19.103-42.667 42.667-42.667v0c23.564 0 42.667 19.103 42.667 42.667v0 234.666h234.666c23.564 0 42.667 19.103 42.667 42.667v0c0 23.564-19.103 42.667-42.667 42.667v0h-234.666v234.666c0 23.564-19.103 42.667-42.667 42.667v0c-23.564 0-42.667-19.103-42.667-42.667v0-234.666z" />
<glyph unicode="&#xe90d;" glyph-name="question" d="M512.816 959.698c-4.57 0.193-9.931 0.303-15.317 0.303-137.963 0-259.081-72.124-327.706-180.724l-0.941-1.594c-5.401-7.661-8.633-17.189-8.633-27.471 0-15.548 7.39-29.371 18.847-38.149l0.115-0.085 86.264-65.158c7.959-6.089 18.051-9.757 29-9.757 15.135 0 28.633 7.009 37.426 17.958l0.073 0.094c50.060 62.476 87.207 98.63 165.426 98.63 61.532 0 137.565-39.73 137.565-99.326 0-45.094-37.247-68.237-97.935-102.305-70.819-39.382-164.532-89.046-164.532-212.656v-19.567c0-26.495 21.479-47.974 47.974-47.974v0h144.916c26.495 0 47.974 21.479 47.974 47.974v0 11.522c0 85.718 250.449 89.393 250.449 321.169 0 174.663-181.119 307.114-350.966 307.114zM492.951 213.019c-76.496 0-138.509-62.013-138.509-138.509s62.013-138.509 138.509-138.509c76.496 0 138.509 62.013 138.509 138.509v0c-0.085 76.462-62.047 138.424-138.501 138.509h-0.008z" />
<glyph unicode="&#xe90e;" glyph-name="search" d="M420.2 111.263c-231.957 0.278-419.921 188.241-420.199 420.172v0.028c0.278 231.957 188.241 419.921 420.172 420.199h0.028c231.957-0.278 419.921-188.241 420.199-420.172v-0.028c-0.278-231.957-188.241-419.921-420.172-420.199h-0.028zM420.2 881.629c-193.295-0.239-349.927-156.87-350.166-350.142v-0.024c0.239-193.295 156.87-349.927 350.142-350.166h0.024c193.295 0.239 349.927 156.87 350.166 350.142v0.024c-0.239 193.295-156.87 349.927-350.142 350.166h-0.024zM726.875 303.364l297.125-297.125-61.901-61.901-297.125 297.125 61.901 61.901z" />
<glyph unicode="&#xe90f;" glyph-name="settings" d="M939.348 448.122c0.043 55.745 34.7 103.384 83.637 122.59l0.895 0.309c-14.052 57.67-35.787 108.442-64.477 154.427l1.281-2.203c-15.757-7.174-34.165-11.393-53.547-11.482h-0.032c-0.051 0-0.112 0-0.172 0-72.604 0-131.462 58.858-131.462 131.462 0 19.404 4.204 37.825 11.751 54.403l-0.336-0.824c-43.71 27.413-94.402 49.147-148.412 62.451l-3.573 0.744c-19.482-49.857-67.141-84.532-122.899-84.532s-103.418 34.675-122.591 83.638l-0.309 0.895c-57.67-14.052-108.442-35.787-154.427-64.477l2.203 1.281c7.197-15.742 11.393-34.148 11.393-53.532 0-72.604-58.858-131.462-131.462-131.462-0.070 0-0.14 0-0.209 0h0.011c-0.102 0-0.222 0-0.342 0-19.294 0-37.599 4.23-54.039 11.814l0.801-0.332c-27.144-43.883-48.769-94.737-62.142-148.845l-0.767-3.667c49.846-19.519 84.505-67.189 84.505-122.955 0-55.658-34.525-103.251-83.326-122.533l-0.892-0.311c14.052-57.67 35.787-108.442 64.477-154.427l-1.281 2.203c15.698 7.147 34.045 11.314 53.364 11.314 72.631 0 131.51-58.879 131.51-131.51 0-19.32-4.166-37.667-11.649-54.191l0.335 0.827c43.786-27.357 94.551-49.086 148.617-62.442l3.607-0.754c19.473 49.711 67.018 84.275 122.636 84.275s103.163-34.564 122.328-83.383l0.309-0.892c57.67 14.052 108.442 35.787 154.427 64.477l-2.203-1.281c-7.061 15.623-11.177 33.873-11.177 53.083 0 72.71 58.944 131.654 131.654 131.654 19.211 0 37.46-4.114 53.915-11.511l-0.832 0.334c27.357 43.786 49.086 94.551 62.442 148.617l0.754 3.607c-49.698 19.76-84.209 67.408-84.293 123.128v0.010zM514.391 235.093c-117.784 0-213.268 95.483-213.268 213.268s95.483 213.268 213.268 213.268c117.784 0 213.268-95.483 213.268-213.268v0c0-0.014 0-0.031 0-0.048 0-117.757-95.461-213.22-213.22-213.22-0.017 0-0.033 0-0.050 0h0.002z" />
<glyph unicode="&#xe910;" glyph-name="users" d="M153.598 501.676c56.872 1.458 102.411 47.909 102.411 104.991 0 0.791-0.007 1.58-0.031 2.357l0.002-0.111c0.012 0.687 0.030 1.489 0.030 2.293 0 57.082-45.54 103.533-102.275 104.988l-0.136 0.002c-56.872-1.458-102.412-47.909-102.412-104.991 0-0.803 0.007-1.606 0.032-2.406l-0.002 0.124c-0.011-0.666-0.029-1.455-0.029-2.246 0-57.082 45.54-103.533 102.275-104.988l0.136-0.002zM870.352 501.676c56.872 1.458 102.412 47.909 102.412 104.991 0 0.803-0.007 1.606-0.032 2.406l0.002-0.124c0.091 1.605 0.141 3.483 0.141 5.383 0 56.62-45.904 102.523-102.523 102.523s-102.523-45.904-102.523-102.523c0-1.888 0.050-3.768 0.15-5.636l-0.008 0.265c-0.012-0.686-0.030-1.487-0.030-2.29 0-57.131 45.624-103.606 102.423-104.992l0.131-0.002zM921.539 448.034h-102.336c-28.408-0.090-54.018-12.031-72.137-31.154l-0.043-0.045c65.32-38.571 110.717-104.899 120.059-182.335l0.11-1.173h105.58c28.429 0.672 51.207 23.882 51.207 52.398 0 0.432-0.004 0.874-0.012 1.305l0.001-0.060v53.642c0.014 0.721 0.032 1.581 0.032 2.434 0 57.082-45.541 103.535-102.278 104.988l-0.136 0.002zM512.187 448.034c99.492 2.394 179.22 83.608 179.22 183.449 0 1.505-0.014 3.008-0.053 4.507l0.003-0.225c0.035 1.274 0.049 2.776 0.049 4.282 0 99.841-79.738 181.055-179.007 183.446l-0.225 0.003c-99.568-2.291-179.409-83.55-179.409-183.462 0-1.517 0.014-3.042 0.053-4.552l-0.003 0.227c-0.035-1.263-0.048-2.753-0.048-4.235 0-99.84 79.738-181.054 179.006-183.446l0.225-0.003zM635.036 394.403h-13.46c-31.808-16.896-69.531-26.811-109.588-26.811s-77.781 9.916-110.872 27.442l1.285-0.62h-13.271c-102.356-2.549-184.341-86.13-184.341-188.863 0-1.422 0.012-2.851 0.047-4.267l-0.003 0.206v-48.516c-0.009-0.523-0.015-1.14-0.015-1.769 0-42.805 34.165-77.629 76.707-78.698l0.098-0.002h460.783c42.65 1.071 76.805 35.896 76.805 78.699 0 0.617-0.005 1.235-0.016 1.861l0.001-0.093v48.328c0.034 1.264 0.047 2.754 0.047 4.238 0 102.746-82.030 186.336-184.169 188.86l-0.234 0.003zM277.163 416.846c-18.162 19.157-43.761 31.11-72.158 31.2h-102.593c-56.872-1.458-102.412-47.909-102.412-104.991 0-0.803 0.007-1.606 0.032-2.406l-0.002 0.124v-53.642c-0.008-0.37-0.011-0.801-0.011-1.233 0-28.527 22.779-51.726 51.149-52.397l0.059-0.001h105.438c9.629 78.538 55.044 144.786 119.172 182.735l1.138 0.623z" />
<glyph unicode="&#xe911;" glyph-name="arrow-circle-down" d="M512 959.968c-282.769 0-512-229.231-512-512v0c0.037-282.742 229.253-511.936 512-511.936v0c282.747 0 511.963 229.194 512 511.932v0.004c0 282.769-229.231 512-512 512v0zM462.818 740.595h96.108v-395.997l155.551 155.612 67.952-67.952-271.807-271.868-67.952 67.952 0.314 0.314-204.23 204.23 67.952 68.013 156.112-156.176z" />
<glyph unicode="&#xe912;" glyph-name="arrow-circle-up" d="M512-63.968c-282.769 0-512 229.231-512 512v0c0.037 282.742 229.253 511.936 512 511.936v0c282.747 0 511.963-229.194 512-511.932v-0.004c0-282.769-229.231-512-512-512v0zM462.818 155.405h96.108v395.997l155.551-155.612 67.952 67.952-271.807 271.868-67.952-67.952 0.314-0.314-204.23-204.23 67.952-68.013 156.112 156.176z" />
<glyph unicode="&#xe913;" glyph-name="star" horiz-adv-x="1075" d="M1077.287 568.118c13.43-41.393-228.29-228.886-241.758-270.252-13.49-41.37 71.537-335.242 36.321-360.8-35.227-25.553-288.218 146.383-331.737 146.41-43.513 0.025-296.717-171.633-331.905-146.034s50.157 319.365 36.728 360.739c-13.43 41.393-254.926 229.16-241.464 270.537 13.49 41.37 319.226 50.985 354.448 76.542 35.227 25.553 139.173 313.271 182.681 313.227 43.513-0.025 147.136-287.844 182.324-313.442s340.935-35.555 354.365-76.948z" />
<glyph unicode="&#xe914;" glyph-name="business" d="M241.243 871.369h541.605c24.443 0.079 44.236 19.873 44.315 44.308v0.008c-0.079 24.443-19.873 44.236-44.308 44.315h-541.613c-24.41-0.079-44.184-19.82-44.315-44.21v-0.013c0.026-24.483 19.84-44.329 44.308-44.408h0.008zM861.609 822.26h-699.222c-23.968-0.746-43.113-20.355-43.113-44.435 0-22.338 16.475-40.828 37.937-43.981l0.241-0.029v-738.696c0.079-32.635 26.526-59.065 59.159-59.118h216.647c10.864 0.026 19.664 8.827 19.691 19.688v98.502c0.026 10.864 8.827 19.664 19.688 19.691h78.765c10.864-0.026 19.664-8.827 19.691-19.688v-98.456c0.026-10.864 8.827-19.664 19.688-19.691h216.645c32.602 0.079 59.012 26.473 59.118 59.061v738.52c21.704 3.182 38.178 21.672 38.178 44.010 0 24.080-19.146 43.688-43.045 44.433l-0.068 0.002zM354.498 172.333c-0.026-10.864-8.827-19.664-19.688-19.691h-39.384c-10.864 0.026-19.664 8.827-19.691 19.688v39.384c0.026 10.864 8.827 19.664 19.688 19.691h39.198c10.864-0.026 19.664-8.827 19.691-19.688v-0.003zM354.498 329.904c-0.026-10.864-8.827-19.664-19.688-19.691h-39.384c-10.864 0.026-19.664 8.827-19.691 19.688v39.384c0.026 10.864 8.827 19.664 19.688 19.691h39.198c10.864-0.026 19.664-8.827 19.691-19.688v-0.003zM354.498 487.475c-0.026-10.864-8.827-19.664-19.688-19.691h-39.384c-10.864 0.026-19.664 8.827-19.691 19.688v39.384c0.026 10.864 8.827 19.664 19.688 19.691h39.198c10.864-0.026 19.664-8.827 19.691-19.688v-0.003zM354.498 645.045c-0.026-10.864-8.827-19.664-19.688-19.691h-39.384c-10.864 0.026-19.664 8.827-19.691 19.688v39.338c0.026 10.864 8.827 19.664 19.688 19.691h39.198c10.864-0.026 19.664-8.827 19.691-19.688v-0.003zM551.45 172.38c-0.026-10.864-8.827-19.664-19.688-19.691h-39.384c-10.864 0.026-19.664 8.827-19.691 19.688v39.384c0.026 10.864 8.827 19.664 19.688 19.691h39.384c10.864-0.026 19.664-8.827 19.691-19.688v-0.003zM551.45 329.95c-0.026-10.864-8.827-19.664-19.688-19.691h-39.384c-10.864 0.026-19.664 8.827-19.691 19.688v39.384c0.026 10.864 8.827 19.664 19.688 19.691h39.384c10.864-0.026 19.664-8.827 19.691-19.688v-0.003zM551.45 487.522c-0.026-10.864-8.827-19.664-19.688-19.691h-39.384c-10.864 0.026-19.664 8.827-19.691 19.688v39.384c0.026 10.864 8.827 19.664 19.688 19.691h39.384c10.864-0.026 19.664-8.827 19.691-19.688v-0.003zM551.45 645.092c-0.026-10.864-8.827-19.664-19.688-19.691h-39.384c-10.864 0.026-19.664 8.827-19.691 19.688v39.291c0.026 10.864 8.827 19.664 19.688 19.691h39.384c10.864-0.026 19.664-8.827 19.691-19.688v-0.003zM748.401 172.426c-0.026-10.864-8.827-19.664-19.688-19.691h-39.384c-10.864 0.026-19.664 8.827-19.691 19.688v39.384c0.026 10.864 8.827 19.664 19.688 19.691h39.384c10.864-0.026 19.664-8.827 19.691-19.688v-0.003zM748.401 329.997c-0.026-10.864-8.827-19.664-19.688-19.691h-39.384c-10.864 0.026-19.664 8.827-19.691 19.688v39.384c0.026 10.864 8.827 19.664 19.688 19.691h39.384c10.864-0.026 19.664-8.827 19.691-19.688v-0.003zM748.401 487.568c-0.026-10.864-8.827-19.664-19.688-19.691h-39.384c-10.864 0.026-19.664 8.827-19.691 19.688v39.384c0.026 10.864 8.827 19.664 19.688 19.691h39.384c10.864-0.026 19.664-8.827 19.691-19.688v-0.003zM748.401 645.138c-0.026-10.864-8.827-19.664-19.688-19.691h-39.384c-10.864 0.026-19.664 8.827-19.691 19.688v39.245c0.026 10.864 8.827 19.664 19.688 19.691h39.384c10.864-0.026 19.664-8.827 19.691-19.688v-0.003z" />
<glyph unicode="&#xe91d;" glyph-name="user" d="M511.965 384.079c0.021 0 0.045 0 0.070 0 159.036 0 287.961 128.924 287.961 287.961s-128.924 287.961-287.961 287.961c-159.036 0-287.961-128.924-287.961-287.961 0-0.025 0-0.049 0-0.074v0.004c0.080-158.965 128.925-287.811 287.883-287.891h0.008zM767.93 320.018h-110.269c-42.76-20.2-92.891-31.993-145.775-31.993s-103.013 11.793-147.902 32.892l2.128-0.899h-110.269c-141.295-0.080-255.808-114.64-255.808-255.948v0-31.996c0-0.021 0-0.045 0-0.070 0-53.016 42.972-95.994 95.986-96.004h831.87c0.021 0 0.045 0 0.070 0 53.022 0 96.004 42.982 96.004 96.004 0 0.025 0 0.049 0 0.074v-0.004 31.996c0 141.356-114.591 255.948-255.948 255.948-0.031 0-0.062 0-0.092 0h0.005z" />
</font>
</defs>
</svg>
