<svg xmlns="http://www.w3.org/2000/svg" width="21.4" height="21.406" viewBox="0 0 21.4 21.406">
  <defs>
    <style>
      .cls-1 {
        fill: #333;
      }
    </style>
  </defs>
  <path id="Icon_ionic-ios-settings" data-name="Icon ionic-ios-settings" class="cls-1" d="M24.133,15.2A2.754,2.754,0,0,1,25.9,12.631a10.915,10.915,0,0,0-1.321-3.182,2.791,2.791,0,0,1-1.12.24,2.748,2.748,0,0,1-2.513-3.868A10.882,10.882,0,0,0,17.769,4.5a2.751,2.751,0,0,1-5.138,0A10.915,10.915,0,0,0,9.449,5.821,2.748,2.748,0,0,1,6.935,9.688a2.7,2.7,0,0,1-1.12-.24A11.157,11.157,0,0,0,4.5,12.636a2.753,2.753,0,0,1,.006,5.138,10.915,10.915,0,0,0,1.321,3.182,2.749,2.749,0,0,1,3.628,3.628,10.979,10.979,0,0,0,3.182,1.321,2.746,2.746,0,0,1,5.127,0,10.915,10.915,0,0,0,3.182-1.321,2.752,2.752,0,0,1,3.628-3.628,10.979,10.979,0,0,0,1.321-3.182A2.767,2.767,0,0,1,24.133,15.2ZM15.25,19.653a4.458,4.458,0,1,1,4.458-4.458A4.457,4.457,0,0,1,15.25,19.653Z" transform="translate(-4.5 -4.5)"/>
</svg>
