<svg xmlns="http://www.w3.org/2000/svg" width="14.864" height="14.815" viewBox="0 0 14.864 14.815">
  <path id="Icon_simple-probot" data-name="Icon simple-probot" d="M7.432.06A1.08,1.08,0,0,0,7.1,2.166l-.391,1.6H1.521A1.521,1.521,0,0,0,0,5.285v8.069a1.521,1.521,0,0,0,1.521,1.521H13.343a1.521,1.521,0,0,0,1.521-1.521V5.285a1.521,1.521,0,0,0-1.521-1.521h-5.2L7.757,2.169A1.08,1.08,0,0,0,7.432.06Zm-5,4.856H12.43a1.235,1.235,0,0,1,1.235,1.235v6.266a1.235,1.235,0,0,1-1.235,1.235H2.436A1.235,1.235,0,0,1,1.2,12.417V6.151A1.235,1.235,0,0,1,2.436,4.916ZM4.451,6.348A2.833,2.833,0,1,0,7.285,9.182,2.833,2.833,0,0,0,4.451,6.348Zm6.034,0a2.833,2.833,0,1,0,2.833,2.833,2.833,2.833,0,0,0-2.833-2.833Zm-6.034.663A2.171,2.171,0,1,1,2.28,9.182,2.171,2.171,0,0,1,4.451,7.011Zm6.034,0A2.171,2.171,0,1,1,8.314,9.182a2.171,2.171,0,0,1,2.171-2.171ZM4.451,8.041A1.141,1.141,0,1,0,5.593,9.182,1.141,1.141,0,0,0,4.451,8.041Zm6.034,0a1.141,1.141,0,1,0,1.141,1.141,1.141,1.141,0,0,0-1.141-1.141ZM6.2,12.067V13.4h.437V12.067H6.2Zm.667,0V13.4H7.3V12.067Zm.666,0V13.4h.437V12.067Zm.667,0V13.4h.437V12.067Zm.667.019v1.3a.669.669,0,0,0,.513-.65h0a.669.669,0,0,0-.513-.65Zm-2.9.017a.669.669,0,0,0-.453.632h0a.668.668,0,0,0,.453.632V12.1Z" transform="translate(0 -0.06)"/>
</svg>
