<svg xmlns="http://www.w3.org/2000/svg" width="19.853" height="14.197" viewBox="0 0 19.853 14.197">
  <defs>
    <style>
      .cls-1 {
        fill: none;
        stroke: #000;
      }
    </style>
  </defs>
  <path id="Icon_awesome-user-friends" data-name="Icon awesome-user-friends" class="cls-1" d="M5.656,8.848a3.3,3.3,0,1,0-3.3-3.3A3.3,3.3,0,0,0,5.656,8.848Zm2.262.943H7.674a4.555,4.555,0,0,1-4.036,0H3.393A3.394,3.394,0,0,0,0,13.184v.848a1.414,1.414,0,0,0,1.414,1.414H9.9a1.414,1.414,0,0,0,1.414-1.414v-.848A3.394,3.394,0,0,0,7.918,9.791Zm6.221-.943a2.828,2.828,0,1,0-2.828-2.828A2.829,2.829,0,0,0,14.139,8.848Zm1.414.943h-.112a3.715,3.715,0,0,1-2.6,0h-.112a3.272,3.272,0,0,0-1.641.454,4.311,4.311,0,0,1,1.169,2.94v1.131c0,.065-.015.127-.018.189h5.2a1.414,1.414,0,0,0,1.414-1.414,3.3,3.3,0,0,0-3.3-3.3Z" transform="translate(0.5 -1.75)"/>
</svg>
