<svg xmlns="http://www.w3.org/2000/svg" width="20.454" height="23.893" viewBox="0 0 20.454 23.893">
  <defs>
    <style>
      .cls-1 {
        fill: #333;
      }
    </style>
  </defs>
  <g id="Group_2163" data-name="Group 2163" transform="translate(-932.016 -1127.826)">
    <path id="Path_879" data-name="Path 879" class="cls-1" d="M1267.122-676.907V-661.6a1.6,1.6,0,0,1-1.488,1.493h-17.852c-.744,0-1.115-.747-1.115-1.493V-682.88a.988.988,0,0,1,1.115-1.12h11.9a3.979,3.979,0,0,1,2.231.747l4.091,4.107A4.265,4.265,0,0,1,1267.122-676.907Zm-1.859,1.12h-5.578a.988.988,0,0,1-1.116-1.12v-5.6h-10.414v20.533h17.108Zm-13.017,1.867h9.3a.365.365,0,0,1,.372.373v.747a1.305,1.305,0,0,1-.372.747h-9.3a.8.8,0,0,1-.744-.747v-.747C1251.5-673.92,1251.874-673.92,1252.246-673.92Zm9.669,3.733v1.12l-.372.373h-9.3a1.3,1.3,0,0,1-.744-.373v-1.12a1.3,1.3,0,0,1,.744-.373h9.3Zm0,3.36v1.12l-.372.373h-9.3a1.3,1.3,0,0,1-.744-.373v-1.12a1.3,1.3,0,0,1,.744-.373h9.3Zm-1.859-10.453h5.207c0-.373-.372-.373-.372-.747l-4.09-4.106a1.15,1.15,0,0,1-.744-.373Zm0,0" transform="translate(-314.652 1811.826)"/>
  </g>
</svg>
