<svg xmlns="http://www.w3.org/2000/svg" width="67.872" height="39.307" viewBox="0 0 67.872 39.307">
  <defs>
    <style>
      .cls-1 {
        fill: #fff;
        stroke-linecap: round;
        stroke-linejoin: round;
      }

      .cls-2 {
        font-size: 15px;
        font-family: Roboto-Regular, Roboto;
        letter-spacing: -0.022em;
      }

      .cls-3, .cls-4 {
        stroke: none;
      }

      .cls-4 {
        fill: #e3e3e3;
      }
    </style>
  </defs>
  <g id="Group_2162" data-name="Group 2162" transform="translate(-1136.962 -34.194)">
    <g id="Path_19" data-name="Path 19" class="cls-1" transform="translate(1133.28 34.194)">
      <path class="cls-3" d="M 59.8253059387207 38.80722045898438 L 15.18794345855713 38.80722045898438 C 14.56948089599609 37.90820693969727 12.1180534362793 34.32069396972656 9.701160430908203 30.45292282104492 C 4.865460395812988 22.71432304382324 4.1673903465271 20.28583145141602 4.181670188903809 19.52701187133789 C 4.196020603179932 18.76467132568359 4.938660144805908 16.34658241271973 9.751120567321777 8.717162132263184 C 12.15171813964844 4.911370277404785 14.57296180725098 1.387962937355042 15.1871452331543 0.5000021457672119 L 59.83109283447266 0.5000021457672119 C 60.46390151977539 1.303404808044434 63.01119995117188 4.572819709777832 65.50273895263672 8.266622543334961 C 70.22126007080078 15.26198196411133 71.12328338623047 18.33840179443359 71.04908752441406 19.68739128112793 C 70.94152069091797 21.64351272583008 68.95037078857422 25.59342193603516 65.29090881347656 31.1101016998291 C 62.86647415161133 34.76496124267578 60.44094467163086 37.9952507019043 59.8253059387207 38.80722045898438 Z"/>
      <path class="cls-4" d="M 15.44954299926758 1.000003814697266 C 14.6584358215332 2.147891998291016 12.40448760986328 5.447559356689453 10.17047119140625 8.989542007446289 C 5.24871826171875 16.7928524017334 4.692337036132813 18.96481132507324 4.68157958984375 19.53642272949219 C 4.673271179199219 19.97815132141113 5.041122436523438 22.05154228210449 10.12335968017578 30.18504333496094 C 12.37358474731445 33.78623580932617 14.65460205078125 37.14503860473633 15.45114898681641 38.30722045898438 L 59.57653045654297 38.30722045898438 C 60.36778259277344 37.2580451965332 62.62107086181641 34.23039245605469 64.87423706054688 30.83371353149414 C 69.67591857910156 23.59514236450195 70.49123382568359 20.7259521484375 70.54985046386719 19.65993309020996 C 70.60710906982422 18.61858177185059 69.97415161132813 15.79067230224609 65.09162139892578 8.551252365112305 C 62.77248382568359 5.112628936767578 60.4033203125 2.041374206542969 59.58798217773438 1.000003814697266 L 15.44954299926758 1.000003814697266 M 14.92543029785156 3.814697265625e-06 L 60.07307052612305 3.814697265625e-06 C 60.07307052612305 3.814697265625e-06 71.82337188720703 14.71360206604004 71.54833984375 19.71484184265137 C 71.27330780029297 24.71607208251953 60.07307052612305 39.30722045898438 60.07307052612305 39.30722045898438 L 14.92543029785156 39.30722045898438 C 14.92543029785156 39.30722045898438 3.6160888671875 23.00666236877441 3.6817626953125 19.51760292053223 C 3.747428894042969 16.02854156494141 14.92543029785156 3.814697265625e-06 14.92543029785156 3.814697265625e-06 Z"/>
    </g>
    <text id="_1" data-name="/ 1" class="cls-2" transform="translate(1171.5 59)"><tspan x="0" y="0">/ 1</tspan></text>
    <path id="Icon_simple-probot" data-name="Icon simple-probot" d="M7.432.06A1.08,1.08,0,0,0,7.1,2.166l-.391,1.6H1.521A1.521,1.521,0,0,0,0,5.285v8.069a1.521,1.521,0,0,0,1.521,1.521H13.343a1.521,1.521,0,0,0,1.521-1.521V5.285a1.521,1.521,0,0,0-1.521-1.521h-5.2L7.757,2.169A1.08,1.08,0,0,0,7.432.06Zm-5,4.856H12.43a1.235,1.235,0,0,1,1.235,1.235v6.266a1.235,1.235,0,0,1-1.235,1.235H2.436A1.235,1.235,0,0,1,1.2,12.417V6.151A1.235,1.235,0,0,1,2.436,4.916ZM4.451,6.348A2.833,2.833,0,1,0,7.285,9.182,2.833,2.833,0,0,0,4.451,6.348Zm6.034,0a2.833,2.833,0,1,0,2.833,2.833,2.833,2.833,0,0,0-2.833-2.833Zm-6.034.663A2.171,2.171,0,1,1,2.28,9.182,2.171,2.171,0,0,1,4.451,7.011Zm6.034,0A2.171,2.171,0,1,1,8.314,9.182a2.171,2.171,0,0,1,2.171-2.171ZM4.451,8.041A1.141,1.141,0,1,0,5.593,9.182,1.141,1.141,0,0,0,4.451,8.041Zm6.034,0a1.141,1.141,0,1,0,1.141,1.141,1.141,1.141,0,0,0-1.141-1.141ZM6.2,12.067V13.4h.437V12.067H6.2Zm.667,0V13.4H7.3V12.067Zm.666,0V13.4h.437V12.067Zm.667,0V13.4h.437V12.067Zm.667.019v1.3a.669.669,0,0,0,.513-.65h0a.669.669,0,0,0-.513-.65Zm-2.9.017a.669.669,0,0,0-.453.632h0a.668.668,0,0,0,.453.632V12.1Z" transform="translate(1152 45.473)"/>
  </g>
</svg>
