<svg xmlns="http://www.w3.org/2000/svg" width="25" height="18.333" viewBox="0 0 25 18.333">
  <defs>
    <style>
      .cls-1 {
        fill: #00bcca;
      }
    </style>
  </defs>
  <path id="Icon_awesome-users" data-name="Icon awesome-users" class="cls-1" d="M3.75,10.107a2.564,2.564,0,0,0,2.5-2.619,2.564,2.564,0,0,0-2.5-2.619,2.564,2.564,0,0,0-2.5,2.619A2.564,2.564,0,0,0,3.75,10.107Zm17.5,0a2.564,2.564,0,0,0,2.5-2.619,2.5,2.5,0,1,0-5,0A2.564,2.564,0,0,0,21.25,10.107Zm1.25,1.31H20a2.437,2.437,0,0,0-1.762.761,5.992,5.992,0,0,1,2.934,4.477H23.75A1.279,1.279,0,0,0,25,15.345v-1.31A2.564,2.564,0,0,0,22.5,11.417Zm-10,0a4.481,4.481,0,0,0,4.375-4.583A4.481,4.481,0,0,0,12.5,2.25,4.481,4.481,0,0,0,8.125,6.833,4.481,4.481,0,0,0,12.5,11.417Zm3,1.31h-.324a5.795,5.795,0,0,1-5.352,0H9.5A4.612,4.612,0,0,0,5,17.44v1.179a1.922,1.922,0,0,0,1.875,1.964h11.25A1.922,1.922,0,0,0,20,18.619V17.44A4.612,4.612,0,0,0,15.5,12.726Zm-8.738-.548A2.437,2.437,0,0,0,5,11.417H2.5A2.564,2.564,0,0,0,0,14.036v1.31a1.279,1.279,0,0,0,1.25,1.31H3.824A6.007,6.007,0,0,1,6.762,12.178Z" transform="translate(0 -2.25)"/>
</svg>
