<svg xmlns="http://www.w3.org/2000/svg" width="21.3" height="23.236" viewBox="0 0 21.3 23.236">
  <defs>
    <style>
      .cls-1 {
        fill: #9ba6b2;
      }
    </style>
  </defs>
  <g id="Group_2144" data-name="Group 2144" transform="translate(-22.912 -20.995)">
    <path id="Path" class="cls-1" d="M.968,13.555A.969.969,0,0,1,0,12.586V1.936A1.937,1.937,0,0,1,1.936,0h9.682a1.937,1.937,0,0,1,1.936,1.936V8.714a1.937,1.937,0,0,1-1.936,1.936H5.163L1.549,13.361A.968.968,0,0,1,.968,13.555Z" transform="translate(30.658 20.995)"/>
    <path id="Path-2" data-name="Path" class="cls-1" d="M13.555,10.65v6.777a.969.969,0,0,1-.968.968H2.9a.969.969,0,0,1-.968-.968V3.873A.969.969,0,0,1,2.9,2.9h2.9V0H2.9A2.906,2.906,0,0,0,0,2.9V18.4a2.906,2.906,0,0,0,2.9,2.9h9.682a2.906,2.906,0,0,0,2.9-2.9V10.65Z" transform="translate(22.912 22.932)"/>
  </g>
</svg>
