<svg xmlns="http://www.w3.org/2000/svg" xmlns:xlink="http://www.w3.org/1999/xlink" width="26" height="22.021" viewBox="0 0 26 22.021">
  <defs>
    <style>
      .cls-1 {
        fill: #9ba6b2;
      }

      .cls-2 {
        clip-path: url(#clip-path);
      }
    </style>
    <clipPath id="clip-path">
      <path id="Path_698" data-name="Path 698" class="cls-1" d="M1534.329-737.313h26v-22.021h-26Z" transform="translate(0 0)"/>
    </clipPath>
  </defs>
  <g id="Group_2145" data-name="Group 2145" class="cls-2" transform="translate(-1534.329 759.333)">
    <path id="Path_697" data-name="Path 697" class="cls-1" d="M1559.055-737.4h-22.579c-.574,0-1.147-.288-1.147-.864v-.288a1.276,1.276,0,0,1,1.147-1.193h22.579a1.281,1.281,0,0,1,1.189,1.193v.288C1560.244-737.685,1559.67-737.4,1559.055-737.4Zm-2.295-4.648a1.052,1.052,0,0,1-1.147,1.152h-2.336c-.861,0-1.147-.288-1.147-1.152v-10.488a1.053,1.053,0,0,1,1.147-1.152h2.336a1.236,1.236,0,0,1,1.147,1.152v10.488Zm-7.827,1.152h-2.295a1.082,1.082,0,0,1-1.189-1.152v-15.136a1.276,1.276,0,0,1,1.189-1.152h2.295a1.236,1.236,0,0,1,1.147,1.152v15.136A1.053,1.053,0,0,1,1548.934-740.893Zm-6.68,0h-2.295a1.053,1.053,0,0,1-1.148-1.152v-4.648a1.276,1.276,0,0,1,1.148-1.193h2.295a1.094,1.094,0,0,1,1.188,1.193v4.648C1543.443-741.181,1543.156-740.893,1542.254-740.893Zm0,0" transform="translate(-0.457 -0.458)"/>
  </g>
</svg>
