<svg xmlns="http://www.w3.org/2000/svg" width="14.167" height="20.613" viewBox="0 0 14.167 20.613">
  <defs>
    <style>
      .cls-1 {
        fill: #9ba6b2;
      }
    </style>
  </defs>
  <path id="Icon_awesome-question" data-name="Icon awesome-question" class="cls-1" d="M8.9,0A7.8,7.8,0,0,0,1.974,3.665a.967.967,0,0,0,.208,1.323L3.919,6.3a.966.966,0,0,0,1.339-.167C6.266,4.875,7.014,4.147,8.589,4.147c1.239,0,2.77.8,2.77,2,0,.908-.75,1.374-1.972,2.06C7.961,9,6.074,10,6.074,12.489v.394a.966.966,0,0,0,.966.966H9.958a.966.966,0,0,0,.966-.966v-.232c0-1.726,5.043-1.8,5.043-6.467C15.967,2.667,12.32,0,8.9,0ZM8.5,15.035a2.789,2.789,0,1,0,2.789,2.789A2.792,2.792,0,0,0,8.5,15.035Z" transform="translate(-1.8)"/>
</svg>
